<?xml version="1.0"?>
<svg xmlns="http://www.w3.org/2000/svg" xmlns:xlink="http://www.w3.org/1999/xlink" version="1.1" id="Capa_1" x="0px" y="0px" width="512px" height="512px" viewBox="0 0 205.789 205.789" style="enable-background:new 0 0 205.789 205.789;" xml:space="preserve" class=""><g><g>
	<path d="M197.203,112.637c0-3.166-2.394-5.675-5.456-6.083V93.73c0-3.443-2.789-6.235-6.235-6.235s-6.235,2.792-6.235,6.235v12.659   h-2.338V93.73c0-3.443-2.789-6.235-6.235-6.235s-6.235,2.792-6.235,6.235v12.659h-4.519V93.118   c0-24.399-18.45-44.247-41.144-44.247h-0.408c6.881-4.874,11.423-12.869,11.423-21.954C129.82,12.053,117.752,0,102.895,0   C88.037,0,75.971,12.053,75.971,26.917c0,9.085,4.54,17.08,11.423,21.954h-0.411c-22.691,0-41.142,19.848-41.142,44.247v13.271   h-4.521V93.73c0-3.443-2.786-6.235-6.235-6.235s-6.235,2.792-6.235,6.235v12.659h-2.338V93.73c0-3.443-2.786-6.235-6.235-6.235   c-3.449,0-6.235,2.792-6.235,6.235v12.823c-3.057,0.396-5.456,2.917-5.456,6.083c0,3.167,2.399,5.688,5.456,6.083v12.824   c0,3.44,2.786,6.235,6.235,6.235c3.45,0,6.235-2.795,6.235-6.235v-12.659h2.338v12.659c0,3.44,2.786,6.235,6.235,6.235   s6.235-2.795,6.235-6.235v-12.659h6.062c2.107,3.896,6.184,6.588,10.93,6.588c4.75,0,8.823-2.691,10.93-6.588h5.3v74.434   c0,6.881,5.587,12.471,12.471,12.471s12.471-5.59,12.471-12.471v-51.191h6.844v51.191c0,6.881,5.59,12.471,12.471,12.471   s12.471-5.59,12.471-12.471v-74.446h5.298c2.106,3.909,6.187,6.589,10.936,6.589c4.744,0,8.817-2.68,10.931-6.589h6.059v12.66   c0,3.452,2.789,6.234,6.235,6.234s6.235-2.782,6.235-6.234v-12.66h2.338v12.66c0,3.452,2.789,6.234,6.235,6.234   s6.235-2.782,6.235-6.234v-12.824C194.81,118.324,197.203,115.804,197.203,112.637z M70.783,106.401V93.13   c0-4.652,1.44-8.866,3.76-12.203v25.474H70.783z M131.258,80.934c2.308,3.337,3.763,7.551,3.763,12.203v13.277h-3.763V80.934z" data-original="#000000" class="active-path" data-old_color="#000000" fill="#FF9300"/>
</g></g> </svg>
